<svg id="all" xmlns="http://www.w3.org/2000/svg" viewBox="0 0 960 500"><title>map</title><path id="outer" d="M528.06,394.53l-2.78,2.9H520.6v-4.26l3.63-2.34h3.83v3.71Zm8-12.49v4.2l-3.57-2.14v-3.27h3.57V369H527l-21.7,14.54-5.33-6.13v12H486.75l7.66,21h25.13L538.86,388l.87-6-3.65.06ZM195.78,145.25l5-3.41h6l-5,3.41Zm45.55-18.1-6.39,5.54H220.15l-4.58,3.14h3.53l-4.92,3.36h-3.51l4.9-3.36h-9.66l-4.18,3.25-4.26.43.85-7.35H195l-3.85,2.56L184,145.25h-4.2l8.09-13.1,9.54-2-.54-1.79-6.29-.21-3-1.81-3.73,1.81h-4.36l1.78-3.86-9-4.13h-77L70,146.85V167.4l9.25,9.26,32.37,4.16,4.32,6.55,9.1-.32,7.51,14.75,14-17.57,33.28.11L182,201l5.28.14.14-20.7,53.86-46,3.67-.63,2.08-6.56h-5.75Zm31.85-2.85H292l-3.91-6.22-3.53-.84v-4.46ZM133.8,225l-7.25-15.63,6-7.56L125.06,187l-9.1.32-4.32-6.55-32.37-4.16.06.06,1.38,14.57,10,18.84L94.75,207,86.9,190.22V180.8h4.63l.18,8.76,14.87,34.94,24.25,10.11,6.05-1.61,5.33,5.43,2.65-4.72h5.59l-.8-6.13h4.79l6.23-4.64.26-6.76-6.81-.12L148.71,225ZM402.32,73.47l9-4.38V67.86l-4.46-4.53-6.25,2.07-7.5-.16-1.59,2.16-4.26-.1v4Zm80.14,95.09,0-4.25-4.82-.13,0,3.13ZM299.85,32.6v4.48l22.37.32L328,47.29v8.94l-10.73,6.09.32,12.14,6.74,6.82h8l12.18-12.87,17.19-5.07,6.45-4.94,13-.8,9.1-2.69,17.15-27.27,10.57-2.16,3.73-3.75-30.48-3.07-26.34,3.07H332.93l-18.38,6.39Zm518.8,172.64-2.6-2.72-4.26,6.07,4.26,4ZM777.72,130l.85-4.79-8.94-1.44-3.41-5.59h-17l-34.82-8.62-3.83,8.62-14.16-4.31-10.57,8.05L720.23,142l39.82.43,4.8-9.77Zm7.56,91.19-5.12,1.13v3l2.08,2.52,3-3.79Zm-19.06-103,3.41,5.59,8.94,1.44-.85,4.79-12.85,2.69L760,142.47,720.23,142,685.8,121.93,670.9,133.29l2.48,11.52-14.91,5.54,4.26,10.43L678.6,168l.63,12.78,41.53,14.36,7.66-7,16.3,7-2.24,6.07,8.63,14.38L766.22,208l9.88,8.45,4.18-2.38.16,4.07,24.75-8.84,8.09-18.11-14.44-23.76,7.42-8.09h-8.53L795,161.05l-5.35-8.8,6.82-6,4.68,8.93,6.56-4.52L820.3,142V125.21l-20.86-5.32-15.33-15H769.21l3.39,12Zm86,25.31,5.83-.08,2.48-4.23-13-5.43.26,10.7,2.56,1.52Zm-16.1,24.73-1,3.29L848,169.63l1,5,2.92-1.24.32-3.9,8.61-2.21L860.42,156l-3.91-6.82L852.62,148l2.22,10.22-8,7.21Zm-2.26,6.35,4.64-.59,1.51,2.24-1.67,5.27Zm12.37-2.18L844,176.47l-3-3.35Zm-14,69.49-7-.73L822.64,238l2.56-5.87-2.54-5.63-4.64-.1-1.13,9.92,6.56,7.91,7.69,1Zm-22.17,17.59,3.11.61,5.53-4.6-.12-3.77Zm24.29,7.12V271l4.62-1.39-1.57-2.86,3.73-1-3.17-9.9L835.63,262H828Zm-13.62-22.07,3.29,3.23-1.07,2-2.66-2.6Zm3.29,7.91,2.34,1.59,2.56-3.87-3.41-.42Zm8.73-4,3.21,4.14h3.51l-3.35-5.39Zm0,3.49,1.8,3.15L833.11,257l-2.54-3.83Zm-3.83,3.19,1.65,2.48-1.65,2-1.88-2.3Zm6.25,65,2.16,3,6.07-.73V320Zm-48.77-35,.3,8.57,4.88,8.53h15.51l7.67-9.8V274.59l-5.53.58-4.48,8.47-15,3.35-3.23-2Zm-11,22.37v-6.54l-25.56-26.52L741.07,271l29.61,40.32Zm29.87,11.66.48,2.22-31.95-5.41,4.8-3.85,8,3,7.2-1.59Zm20.43,0h-4.94l1,3.19h4.72l2-1.61ZM817,324.27l1.45,1.77h3.43l-1.19-2.56ZM835.17,320l-4.94,5.51L834,326l3.35-3Zm-16.44-9.74,3.67-1.13-1.11-6.47,2.16-2.4,1.82,4.8,4.4,1.53v-3.45l-2.48-5.47,4.7-3.95-7.5.32-1.55-2.14,3-3.27,5.51,1.9,2.72-.24,4.07-4.8-3.57-.08L832.23,287l-7.67-1.86-5.08,4.58.36,7.26-3,3.93ZM846.28,300l-.85,3,8.31-.85V300Zm1.92-19.34-2.78,2.74-1.05,6.82,3.83.93-.85-6,2.22-2.78ZM867,298.83l-1.11-5.91-9.1,1.29Zm-.61,4.92L879.1,309l2.28,6.48-4.22,2.58L888,321.87v-21.4l-8.83-4.6L871,302.55l-8.71-3.43-1,4.8Zm-37.8-141.16-8.57-7-3.79,3.5,5.12,11.07,6.19-.43Zm-8.57-7-3.79-3.1,4.9-.64L820.3,142l-12.59,8.67,3.69,7,4.86,1.36Zm-11,113-6.82,9.18L786.5,285l3.23,2,15-3.35,4.48-8.47,5.53-.58v-6.5Zm-52.2,0,2.74,8.88,11.26,9.6.87-3.41-10.63-15.71ZM892,323.27l7.56-6.94,9.8,9.56,8.94,1.82L907.2,316.64l.54-5.85L888,300.48v21.4Zm20.74-11.46,4,2.38,6.88-3.87v-4Zm5.55-11.24,8,5.75,3.21-1.09-8.15-4.86Zm-167.16-85-8.63-14.38,2.22-6.07-5-2.14-6.7,4.82-3.15,21.8,5,4.16,1.9,10,3.51,1.05,2.52-3.15,4.68,5.28,2.6,9.64-.61,10,4-7.89-7.24-26.1,4.9-3.55Zm14.48,12.26,5.79,7.87L766,241.16h12.14v-3.09L766.27,225.5l-2.62-8.09-8.21-4-4.34,2.2V219l4.24,2.48v6.41Zm-10.23,0v-6.41L751.1,219l-4.9,3.55,7.24,26.1-4,7.89-.24,3.93,7,5.95.67,2.18,4.24-.63-6.82-10.05,1.59-15.55,7.67,7.6v-6.37l7.81-7.83-5.79-7.87Zm8.21,15.71v6.37l3.83,3.81,4.3-.59,6.41-4.8v-7.18H766Zm2.72-18.07,11.82,12.57v10.27l-6.41,4.8.16,6.86,12.26-8.09-.42-12L770.9,226.37l.63-7.4,4.56-2.58-9.88-8.45-10.77,5.45,8.21,4Zm-51.11-26.18-2.72,1.27,3.85,12.16,2.48-2.4,11.07,9.28.71-5-5.81-5.43-1-6.5-4.64,1.9Zm4-.83-6.7-1.67.93-4.2-1.92-.67-4.11,6.54-22.55-8.54.06-7.2-5.63-2L678.6,168l-4.92-2.24h-4.54l-6.74,4.79-.18,4.08L666.3,177l1.94,8-8.86,8.16h-5.67v6l4.24,1.61v5.2l-7.66,2,.65.77,6.33,2-3,3,2.8,3.63,5,.59.89-4.16,2,0,16.12,46.37,10.23-6.29L693,235.29l23.34-22.55-3.85-12.16,2.72-1.27,4,5.31,4.64-1.9,1,6.5,5.81,5.43L733,197.83l6.7-4.82-11.28-4.87-7.66,7Zm-34.29-15.74-.06,7.2,22.55,8.54,4.11-6.54Zm28.52,9.87-.93,4.2,6.7,1.67,1.61-3.33ZM585.65,138.73l4.78,4,6.09-1.68,5.39,4.5L601,133.84l8.31-1.92,10.95,7.51,9.16-1.76,6.7,8.84,6.47-.29,6.33-5.2,14.93-.65,9.56,4.43-2.48-11.52,14.89-11.35-8.59-5L627.16,99.25l-19.73,4.45v8.92h-35v11.53l4.68,5.85,10-4,6,4-7.24,3.51ZM624,166.26l-3.35-5.43-13.09-4.15-7.73,2.58-.14,3.44h-9.86l-5.43-9.59-13,1.28v3.83L587.13,185l4.68.45,10.87,11.34,20,6h5.55l4-6.92-4.46-5.59-6.39-18.52Zm-22.05-20.72-5.39-4.5-6.09,1.68,9.72,8-.36,8.5,7.73-2.58,13.11,4.15,3.35,5.43,12.45-6.39-20.53-16.43H607.2Zm51.8,47.56h5.67l8.86-8.16-1.94-8-4.09-2.31.18-4.08,6.74-4.79h4.54l-9.46-4.32-10.07,1.45L651,176.74l-11.64,10.76-12.49-.12,1,2.83,4.46,5.59-4,6.92H645.7l4.6,5.24,7.66-2v-5.2l-4.24-1.61Zm-33.48-53.66-10.95-7.51L601,133.84l.93,11.69,5.3-2.08h8.71l20.53,16.43,6.72,1.8-3.05-9,9.54-2.74.54-4.06-14.08.62-6.7-8.84ZM624,166.26l-2.54,5.43,5.39,15.69,12.49.12L651,176.75l3.19-13.84-2.06-5.83-8.92,4.59-6.72-1.8Zm27.27-11.87-8-2.6-3.11.9,3.05,9,8.92-4.59,2.06,5.83,10.07-1.45-1.49-.68-2.94-7.2ZM648.89,141l-6.33,5.2,7.62-.34-.54,4.06-6.43,1.84,8,2.6,8.57-.81-1.33-3.23,14.91-5.54-9.56-4.43Zm-76.45,7.48,5.71,5.21,6.21-.61L580,145.49l-4.68-1.16Zm-12.28-2.16,8.47,2.16h3.81l2.92-4.18-10.81-4.9-4.38.95Zm11.2,8,6.78-.67-5.71-5.21h-3.81ZM506.82,89.44l-2.24.53.58.43-.63,2.88-6.29-2.88,0,3.73,8.57,2.19L513,99.14l2.38-2L514.51,91l-3.13,1Zm-8.55,9L503,100l1.31,2.71,1,2.89,7.6-6.44-6.17-2.82-8.57-2.19Zm24.27-1.29h-7.18l-10,8.48L507,110l14.3,2.28,8.92-1.95-5.31-2.16,3.19-2ZM502.63,86l-.75,1.92,2.7,2,2.24-.53L511.38,92l3.13-1-1-6.9-1.78,1.68Zm18.64,26.22L507,110l.89,2.48-5.12,6.38v3.61h19.34L524,126l-3.35,5.25,2.94,1.23.79-2.44h11.46l-2.54,2.63,3.53,2,4.76-.37L537,128.5l11.9-2.53,3-6.81-21.76-8.86ZM494,56.4,474,71.09V84.15l-2.76,4.32,7.54,8.68,12.3-10.89-5.75-7.14,13-14.15h2.56l-3.53-8.57ZM458.72,89.46l11.72-1.92.81.93L474,84.16V71.09l20-14.69h11.09V52.74l-11.36.58-39,27ZM505.15,56.4h-7.81L500.85,65h2.06l-6.23,14.11L504,82.75H515l6.23-7.19L510.94,52.44l-5.79.29ZM841.1,120.65h3.83l-13.51-13.84-3.83-.11,10.85,13.42,5.31,9.9h3.95ZM503,100l-4.78-1.59,0,3.18,6.07,1.12ZM788.74,52.15l-3.67-5-22.69-3.71L756,49.21H737.64L730,43.46H688.45l-2.56-9.15H647.56L613.77,49.42l7.4,9.16-6.39,6.6L609,46.32l-10.19-.81,4.9,11.15-39.41,1.06L527.48,72.84l-4.86-9.26,14,.53,6.82-3.41-26.83-8.56-5.71.29,10.33,23.12L515,82.75l-1.51,1.41,1,6.9.85,6.06h7.18l5.53,9-3.19,2,5.31,2.16,21.76,8.86-3,6.81,1.43,3.41-3.51,1,.61,5.6,12.71,4.45,4.38-.95,10.81,4.9,4.68,1.16-2.92-5.11V130l-4.68-5.85V112.65h35v-8.92l19.73-4.45,50.06,17.65,8.59,5,10.57-8.05,14.16,4.31,3.83-8.62,34.82,8.62h17l6.39-1.28-3.41-12h14.91l15.33,15,20.86,5.32v16.82l9.14-1.61,4.92-7.34V119.49l-14.06-16-13.62-.21L809,86.48l28.1.21,3.05-9.55L852,81.64l0-4.4,2.94.3,5.12,4.9-4.94,3.36-.59,10.05,20,19V96.49L863.27,85.63,890,77.16l.34-2.73L876.9,70.78l5.24-4.08,12,2.48,8.15.16-6.54-7-42-8.31ZM489.09,123.43l-4.94,4,7.18,2.67,7.66-1.32,6.07-6.38h-2.4v-1.51ZM485.42,120l3.67,3.47,13.56-2.5v-2.1l-12.3-1.49-.52-.2Zm-25.9,9.87,4.4.32,4-.92-1.43-4.31h-3.75L460.29,126ZM476.37,120h9l4.42-2.82-8.65-3.41-7.73,2.4Zm-60.76,41.57,1.78.13,2.06-17.32-6.7-1.12-.34,12.67Zm104.89-30.3,3.35-5.25L522,122.43h-5.73ZM504.26,102.7l-6.07-1.12-6.39.21-1.45-1.33-9.16,2.24h-.81l.81,11,8.67,3.41.5.2,12.3,1.49,5.12-6.38-.89-2.48-1.59-4.37Zm.79,19.73L499,128.82l5.43,9L518,136.29l3.87,1.06,1.59-4.91-2.94-1.23-4.24-8.79Zm-24.69-19.74-11.76-.13-.54-2.09h-4.13l.83,2-6.19,3.71L458,116.87l3.75,2-1.49,7.2,2.44-1.12h8.73l.75-.22,6.33-1.86L476.37,120l-2.92-3.83,7.73-2.4Zm-16.42-2.23h4.13l-.22-.88L469.2,92,465.49,92l-2.64,5.95Zm11-2.65-2.32-2.3-2.06.85-.63,3.26,3.85,0Zm3.59,25-7.08,2.08h-5l1.43,4.31,7.56-1.75h8.69l3.63-3,1.31-1.06-3.67-3.47h-9Zm4.32,34.49h-7.67v1.92l2.88,2,4.8.74ZM462.73,146.5v7.88h3.67v-6.81Zm-3.21-16.69-.69,3.39,4.44,2h5.16l15.87,15.83.81,6.74,2.92-1.7.91-4.84,3.61-.72-19.36-16.75,5.49-.33-3.21-6-11.54,2.67Zm5.06,11.27v3.25l1.82.69.81-3.94ZM428,121.16v2.34l6.58,3.56.87,11.67,9.76,6.24,3-3.9,14.28.1.42-6h.38l-4.44-2,3-14.38-13-6.78-15.23,9.13Zm24.45-11.3L448.79,112l7.28,3.8,2.08-1.12.08-1.76Zm5.81,3.08.36-6.78-6.17,3.69Zm-2.16,2.88,2,1,.1-2.15Zm-23.84-16.6.08,4.9L429,106l3,4.3-6,5.68,7.91-1.44,8.05-1.28.52-3H444l.36-3.3-5.22-1.1-6.52-15-5-.15v8.07Zm-6.31,3.54v-3.2l-5.83-.39,3.35,4.47Zm-11.74.74v8.73l3.35,0v-3l6.39.88-.48-6.47-3.35-4.47Zm3.21,58.15,14,1L445.18,145l-9.76-6.24-22.57.16-.1,4.31,6.7,1.12Zm31-7.46v-3.75L444,154.2Zm51.09-4.36,8.86-2.87-2-4.76-7.3,1.43Zm-5.61-20.15,1.63,9,3.51,4.9,7.3-1.43-1.86-4.37-5.43-9Zm-15.17,3.75.81,0,4.16-2.18,1.88-3.23-1.39-.52h-8.69ZM522.94,151l-6.6-.05,5.43,10.92,25,1.38,24.53-5v-3.83l-2.74-5.88-8.47-2.16-34.19,1.12Zm-6.62-2.48h6.09l-2.46-5.3-3.69,1.19ZM489,141.42l2.2.55,4.22-3.23-1.19-6.65-9,1.22Zm7.12,9.47,2.82,3.25,5.43,1.52-3.31,1.4,4.38,5.51,2.76-4.36-3.07-6.71,6.11-3h5l-.06-4.1Zm-4.84-20.76L485.54,128l-1.88,3.23-4.16,2.18,1.45-.09,6.72,7.77,1.39.35-3.79-8.12,9-1.22-.44-2.39Zm2.56,12.49,3.17-1.69-1.59-2.2L491.25,142l4.42,8.35.5.58,3.29-1.06-.48-6.2-1.92-2.7ZM508.32,147l11.62-3.76,1.9-5.86L518,136.29l-13.56,1.54ZM595,202.78l2.7,1.78,1.77-1.82-3.09-4.36ZM541.24,166l-7.12,2.64,5.1,1.28Zm4.58,9.11v12.8l2.68.32,4-1.86,1.23-7.19,3.11-1.32.16-.07-.91-3.82-6.41,3.82Zm48.35,27.07-7-11.5h-3.07l-2.2-2.85-6,0-19-9.94-3.13,1.32-1.21,7.19-4,1.86-2.66-.32,24.81,43.11.5,1.61,2.58-4.42,8.81,1.11-.81,3.35,12.47-6.54,17.55-4.7v-9.14L602.58,211l-2.78-5.1Zm-15.09-14.37h2.8l2.18,2.85h3.07l-3.73-6.07H579.9ZM561.27,170.9l-5.2,3.1,1,4,18.82,9.84h3.23l.81-3.2,6.92,0-15.55-26.36-7.14,1.46Zm45.2,36.33-6.66-1.31,2.78,5.1,5.16.73,7.34-7.46-3.35-3Zm1.27,4.52,4,.56v9.14l-8.83,2.36v5.31l4.92,3.33,16.26-20.15-9-8Zm-59-42-2.9,5.36,3.85,2.68,11.6-6.92,2.86-11.21-17.39,3.55-1.17,5.45Zm45.45,56.38L581.7,232.7l.81-3.35-8.81-1.11-2.58,4.42,4.4,14.36,32.29-14.56-4.92-3.33v-5.31Zm-48.35-51,2.9-5.36-3.15-1.09-1.15,5.45Zm-.08,13,.08-.19v-12.8l-1.41-1-2.22,8.2Zm26.53,182.73,3.37,8,8.07.36,13.74-44.09h-4.9l-16,16.58L575,363.17ZM483.55,262.56l-2.34-6.92h4.68l-5.77-12.26v6.78l-8.29,17.17-7.24.42-1,7.06h3.13l-.16,7.22h20l.89-2.56h0l-6-8.41Zm-11.5,24.73h-5.61l-.18,8.59,7.2,9.62v-8.23h9.24L478,282h-11.4l-.14,5.26Zm-18.74-18.13,1.27,5.65h9l1-7.06,7.24-.42,8.29-17.17v-6.78h-31l-5,24.43Zm-45.79-4.68L409.8,267v10.65l16.9-4.88V257.19l-16.5-3.25v8.21Zm2.28,13.21V267l-6.11-6.88-5.41,5.1Zm101.72,49.7-5.83-2.88V313.89H499.1l-1.33,4.68-6.56.22-1.71-5.89-10.43.08v23.26l-5.95,9.8.52,6.39h36.79l-6-7.46v-8.31h7.34ZM438.16,269.5l-2.74-16.74H426.7v20ZM478,282l4.72,15.23h-9.24v8.23l3.63,4.84,8.81-4,9.26-15.37,1.47-11.46h-9.2l-.89,2.56Zm86.07-42.22,5.45,8.63,2.08-1.75L557.76,223l-7.14,16.86ZM398.3,265.26l5.39-5.1-5.53-6.23-5.37,5.39ZM571,254.07l3.47-2.5-2.84-4.88-4.14,3.47Zm-25.66,77.46v5.12l4.48,3V346l-4.26,3.73v-7.48l-4.26-3.49-.12.08-8.05,5.61,8.05,5.28v7.38l-5,11.78v13l3.65-.06.24-1.77,7.56-5.28L547,359l17.73-14.54-1.77-16.58Zm29.13-80-3.47,2.5,3.53,4,14.06,5-22,18.28v15.91l34.41-40-1.41-7-23.92,3.55ZM486.75,389.37H500V355.59h17.53l-2.28-3.17H473.64Zm65.41-115.6-6,.85,1.73,7.42-.85,6.29-2.7,4.76L560.8,304l5.79-6.76V281.3L573,276H554.25Zm-7.85,19.32-1,1.8h-5.93l1.53-2.62h-2.7l-6.07,15,11,15.53h4.16v8.71l17.65-3.67L560.8,304Zm-135.07-94.2h-9.8v11.24l-3.61,5.47h-12.1l-.44,12.63,14.87,10.69V235.1H416l-1.71-30.5h9.42l-14.54-10.73Zm124.48,99.5,2.46-6.11h-5.24l-1.67,7Zm-3.61,8.92,3.61-8.92-4.44.93-1.21,5.1Zm-143-54.16,5.73,6.19,5.37-5.39,5.53,6.23,3.83,4.32,2.68-2.34v-8.21l-1.29-5.85h-17Zm29-18H398.16v3.83l4,9.16h6.7l1.29,5.85,8.25,1.63v-8.27l31.67-12.83V224l-26.36-19.42h-9.42Zm110.09,94.54,6.39,2.56-2.22,4.46-18.78-9.26.24,9.26h-7.34V345l6,7.46h11.24l19.45-13.55v-16l-2.44-3.43L528.06,321ZM500,377.33l5.31,6.13L527,368.92l-9.48-13.33H500ZM418.45,255.56l8.25,1.63v-4.42h8.73L445.56,249l-9.68-8.81-17.43,7.06Zm122.68,67.27v16l.12-.08,4.26,3.49v7.48l4.26-3.73v-6.39l-4.48-3V322.83Zm28.38-74.39-5.45-8.63H550.62l-9.5,22.43L554.25,276H573l15.57-13-14.06-5-7-7.87Zm-38.57,43.83h7.93l2.26-3.95H547l.85-6.29-1.73-7.42-11.36,1.59ZM450.12,224v10.45l-14.24,5.77,9.7,8.81,2.54-.93,1-4.72h31l7-14.36-2.76-18.9h-13.8Zm-66.38-8.41h12.08l3.63-5.47V198.88h9.8v-6.82H398.46L383.9,211Zm-.89,24.93,9.78,2.86h-9.88l-.18,4.7H402.2l-4-9.16-14.87-10.69Zm9.78,2.86-9.78-2.86-.1,2.86ZM487.1,229l-7,14.36,5.77,12.26h-4.68l2.34,6.92,23.16-10.95V239.7l5.16-5.08.52-11.58-20.11-12.91h-7.91Zm.06-47-4.22-5.12-9.06-2.18-8.43,9.07,5.47,26.3h21.36L512.39,223l2-44.5L502.65,177l-4.84,7.24Zm-79.62,10h1.71v-1.45l24.27-13.25v-9.51l-17.89,1.86-17.17,22.35Zm26-24.19v9.51l-24.27,13.25v3.25L450.12,224l20.45-13.88h.36l-10-47.93-11.74-.34Zm27.43-5.67,4.5,21.66,8.43-9.07-3.31-.79.42-11.5ZM515.2,352.42,527,368.92h9.12l5-11.78v-7.38l-8.05-5.28-11.4,7.93Zm5.39,44.94h4.68l2.78-2.9v-3.71h-3.83l-3.63,2.34Zm15.49-16.6h-3.57V384l3.57,2.14Zm9.6-192.49.06-.17-3.55-5.78-27.84-3.78-1.49,33.75h30.52l6.15-3.51L536.88,187l6.92,5.64Zm3.85,20.53-6.15,3.51H512.85l-1,22.31-5.16,5.08v11.92l18.27,21,9.78,3.57,17.37-2.44-11-11.52,9.5-22.43L557.76,223Zm-21.48,95.61,6.7-28.2L525,272.64l-27.59.77-2.24,17.53-9.26,15.37-8.81,4,2,2.64,10.43-.08,1.71,5.89,6.56-.22,1.33-4.68h6.58v10.63l24.61,12.14,2.22-4.46-6.39-2.56,1.92-8.63,10.63-1.61Zm-46.64-33.34,6,8.41h9.24l.77-6.07,27.59-.77-18.27-21-23.16,10.95Zm-33.3-23-8.65,3.17,2.84,17,1.75-.5Zm-8.65,3.17-4,1.49,2.74,16.74,4.14-1.19Zm-52.42,1.86,4.82-5.06h-9.28l0,.22ZM116.75,54.23l-7.24-3-37.9.21L56.28,57.64v6.81L39,64.24,35.76,68.8l14.55-.52-18.74,7L22.53,87.58l7.78-.13L15.39,97.24l5.45.43L49.38,84l32.94-1.15,10,10,3.78-4.07-3.3-3.41H89.08l-3.64-4.17,31.31-27ZM92,117.61l-5.22-4.26-2.24,1.92L88.16,120H92Zm199.9,6.59L288,118l-3.53-.84v-4.46L273.08,124.2Zm-5.95-72L263,42.83l-3.41,0-8,6.53,2.66-6.57-3.85,0-9.26,9.85,22.51-1.22,13.74,12.3-9.24-.16-4.66,3.82H253.09v3h10.65l9,7.46,2.46-1.07L273.08,72l6.21,3,2-.88V64.76l7.14,2.54,4.11-2.74-2.32-4.33-4.13-1.5Zm-77.07,83.55h6.6l4.58-3.14h14.79l6.39-5.54H247l-2.08,6.55,10.21-1.76-6.7,3.19.63,2.77,18.21-6.4-8.88-.42-4.14-3.73,4.11-6.37-2-1.91-12.87,5.84v-3.35l12.32-5.91,19.73-.85,14.83-7.9.08-3.6-10.81-1.87L278.3,83.66l-14.14,5.56.1-8.31-6.82-5.8h-9.26l-25,36.45-6.07,0,.12-12L195.6,87.88l21.58-16,12.24-2.23-2.56-3.78,18.84-2.08,7.67-8-7.2-.8-9.9,6.55L237.38,56l-4.62-.48-1.09-6.75-8,3.56,2.08,4.31L215,61.74l-18.68-3.51-9.88,4.63-24-9.58-45.83,1-31.31,27L89,85.44h3.72L96,88.85l-3.78,4.07L88.4,110.46l6.87,6.23V120h77l9,4.13,15.31-3.25,1.92,6.79,3.09,2.28,5.2-.37Zm27.63-68.42-5.87,4.77,11.6,1.23,1.23-3ZM213.84,55.16,216,58l5.47-2.79-1.63-2.59ZM218,45.79l3.49,3.54,7.5-2.5,2-5.24Zm14.3-2.11,1,3.35,10.21-2.71-2.06-2.74Zm26-6.95-5.59-2.32-5.43,4.63,22,1.74,5.75-4ZM312,24.36l11.5-6.49L277.8,21.26v2.47l15.41-.32L291,26.28l-16,.32,2.08,3.67-6.88-1.12L273,32.67H261.18l1.77,1.76h12.93L278,36.18,296.8,27.4ZM256.08,27l8.51,1.61,4.88-3.12-3.53-2.64ZM166.23,49.34l20-6.8-4.6-2.13-18.9,4.81Zm22.57-5.56L178,47.44l6.35,2.67-9.9,2.52,12.3,4.79,8.47-3.67L204.66,56l7.06-1.62-6.9-3.19,5.31-6.86h-5.31l-3.19,4.13-1.29-4.13-5.63,2.19ZM173.19,212H183l7.91,5.28-3,3.35h13.72l-16.4-11.82h-8.68Zm13.74,14.7,2.06,1.77h5.91v-2.08l-2.06-2.08h-5.91Zm36.39-1.63-1.21,2h3.31l1.21-2Zm-73,8.57h-5.59l-2.65,4.72,7.91,4,5.36-9.68-1-5.16h-4.79Zm6.23,7.83-1,3.39,1.44.65,13.22-11.07-15.93.16-2.63,4.7Zm-1,3.39,1-3.39-4.86-2.16-1.7,3Zm5-22-6.23,4.64,1,5.16Zm1.52,29.43,8.62.91-.43-18.76-13.22,11.07ZM176,304.55l7.05,3.37,12.57-15.43-12.81-7.32-6.08,7.66Zm25.9-54.62-3.41,0-7.12,9.62-3.63.24,1,3.49-1.9,2.7,1.47,4.88-1.39,9.1-4.14,5.24,29.27,16.72V283.13l6.8-.46V267.78l-11.17-1.15-4.86-5.37ZM248.37,477.6l4.36,4,13.45.5-14.52-7.58ZM269,380.92l-5.87,3.57h-7.89v-7l-16.12-10.91-.91,1.67H224.79l-3.61,33.52,7.6,33.22,6.86,12.22.32,9.16,10.19,15.61,3.71.38-1.92-39.92L269.55,423l-9.8-13.64v-15l9.54-9.8Zm2.38,32.76,4.68-8.11-16.34-11.19v15ZM225.9,255.24l-7.24-5.16-16.78-.16,1,11.32,4.86,5.37,11.17,1.15v14.89l1.78-.12,2.26,5.06,7.26-2.34-.59-7.85,9.72-3.57,2.88-14.2-3.27-3.13Zm-63.82-2.94,5.74,7.75,2.07.73,2.91-3.77-2-1.13-.06-2.68Zm90.19,17-10.13-9.64-2.88,14.2,4.22-1.55-.58,12.12,9.7-1.09-3.31-8.49ZM227.2,327.77l-9.9,2.8v22.63l7.46,15h13.45l5.24-9.6,10.13-.06-.24-7.58-17.25-14.1Zm34.11-45.39,6.5-.73,1.92-5.45-2.56-5.61-5.43-.46Zm-7.73,76.19-10.13.06-4.32,7.93,16.12,10.91v7h7.89l5.87-3.57-.4-5.55-14.75-7.87Zm-1-75.24,8.71-1,.44-12.26-9.48-.83-3,5.55Zm40.75,12.16L286,292.29l-7.38,4.32,2.4-6.47-4.9-2.12-7,5.35,5.06-7.46-4.46-9.74-1.92,5.45-24.91,2.78.58-12.12-4.22,1.55-9.72,3.57.59,7.85-7.26,2.34-2.26-5.06-8.59.58v22.15l-8.73,1.07-3.85,12.55,14.6,12.57,13.15-3.71,8.88,9.12L253.34,351l.52,16.5,14.75,7.87.65,9.22-9.54,9.8,16.34,11.19,9.52-16.6,2.24-14.38L311,364.36l4.3-32,10-13v-7.89l-16.32-10.63-16-1ZM179.09,256.75,176.38,259l-3.59-2-2.91,3.77,8.55,3.05,2.07-3.09,4.9.48,1.43,4.72,1.9-2.7-.89-3.27-1.07-3.91Zm24.21,49.6,8.73-1.07v-3.39l-16.46-9.4L183,307.92l-7.05-3.37-.23,3.61,21.42,36.47L215.64,357l1.67-3.83V330.57l-3.25.91-14.6-12.57ZM228.75,435l-7.6-33.22,3.61-33.52-7.46-15L215.64,357l3.11,75.86,8.19,6.62.38,13.6,14.2,18.36,4.6.48-10.19-15.61-.32-9.16Zm-9.92-212.6-9.66-1.07v5.33l3.23-2.4h5.16Zm-9.66,3v-4h-6l2,2.78H201.6v1.25ZM935.6,430.63l-2,6.35,14.48-10.31-4.16-5.55v-6.35l-2.38,1v8.92Zm-38.08,20.82,30.14-15.27v4l-23.2,15.27ZM774,373.11l25.38-11.9,18.84-20.82L828.51,345l4.56-9.52,17.25-.4L846,343l14.28,12.3,9.52-9.52V332.46l4.36,1.39,5,23.8,15.47,21.81L893,395.92,864.8,425.07l-24.39-1.39-3-16.46-8.33,3.57-7.93-6.94L773,414.36l-3-3.57,4-9.52Z" style="fill:#bcbec0;stroke:#000;stroke-linecap:square;stroke-linejoin:round;stroke-width:1.5px"/><path id="inner" d="M528.06,394.53l-2.78,2.9H520.6v-4.26l3.63-2.34h3.83v3.71Zm8-12.49v4.2l-3.57-2.14v-3.27h3.57V369H527l-21.7,14.54-5.33-6.13v12H486.75l7.66,21h25.13L538.86,388l.87-6-3.65.06ZM195.78,145.25l5-3.41h6l-5,3.41Zm45.55-18.1-6.39,5.54H220.15l-4.58,3.14h3.53l-4.92,3.36h-3.51l4.9-3.36h-9.66l-4.18,3.25-4.26.43.85-7.35H195l-3.85,2.56L184,145.25h-4.2l8.09-13.1,9.54-2-.54-1.79-6.29-.21-3-1.81-3.73,1.81h-4.36l1.78-3.86-9-4.13h-77L70,146.85V167.4l9.25,9.26,32.37,4.16,4.32,6.55,9.1-.32,7.51,14.75,14-17.57,33.28.11L182,201l5.28.14.14-20.7,53.86-46,3.67-.63,2.08-6.56h-5.75Zm31.85-2.85H292l-3.91-6.22-3.53-.84v-4.46ZM133.8,225l-7.25-15.63,6-7.56L125.06,187l-9.1.32-4.32-6.55-32.37-4.16.06.06,1.38,14.57,10,18.84L94.75,207,86.9,190.22V180.8h4.63l.18,8.76,14.87,34.94,24.25,10.11,6.05-1.61,5.33,5.43,2.65-4.72h5.59l-.8-6.13h4.79l6.23-4.64.26-6.76-6.81-.12L148.71,225ZM402.32,73.47l9-4.38V67.86l-4.46-4.53-6.25,2.07-7.5-.16-1.59,2.16-4.26-.1v4Zm80.14,95.09,0-4.25-4.82-.13,0,3.13ZM299.85,32.6v4.48l22.37.32L328,47.29v8.94l-10.73,6.09.32,12.14,6.74,6.82h8l12.18-12.87,17.19-5.07,6.45-4.94,13-.8,9.1-2.69,17.15-27.27,10.57-2.16,3.73-3.75-30.48-3.07-26.34,3.07H332.93l-18.38,6.39Zm518.8,172.64-2.6-2.72-4.26,6.07,4.26,4ZM777.72,130l.85-4.79-8.94-1.44-3.41-5.59h-17l-34.82-8.62-3.83,8.62-14.16-4.31-10.57,8.05L720.23,142l39.82.43,4.8-9.77Zm7.56,91.19-5.12,1.13v3l2.08,2.52,3-3.79Zm-19.06-103,3.41,5.59,8.94,1.44-.85,4.79-12.85,2.69L760,142.47,720.23,142,685.8,121.93,670.9,133.29l2.48,11.52-14.91,5.54,4.26,10.43L678.6,168l.63,12.78,41.53,14.36,7.66-7,16.3,7-2.24,6.07,8.63,14.38L766.22,208l9.88,8.45,4.18-2.38.16,4.07,24.75-8.84,8.09-18.11-14.44-23.76,7.42-8.09h-8.53L795,161.05l-5.35-8.8,6.82-6,4.68,8.93,6.56-4.52L820.3,142V125.21l-20.86-5.32-15.33-15H769.21l3.39,12Zm86,25.31,5.83-.08,2.48-4.23-13-5.43.26,10.7,2.56,1.52Zm-16.1,24.73-1,3.29L848,169.63l1,5,2.92-1.24.32-3.9,8.61-2.21L860.42,156l-3.91-6.82L852.62,148l2.22,10.22-8,7.21Zm-2.26,6.35,4.64-.59,1.51,2.24-1.67,5.27Zm12.37-2.18L844,176.47l-3-3.35Zm-14,69.49-7-.73L822.64,238l2.56-5.87-2.54-5.63-4.64-.1-1.13,9.92,6.56,7.91,7.69,1Zm-22.17,17.59,3.11.61,5.53-4.6-.12-3.77Zm24.29,7.12V271l4.62-1.39-1.57-2.86,3.73-1-3.17-9.9L835.63,262H828Zm-13.62-22.07,3.29,3.23-1.07,2-2.66-2.6Zm3.29,7.91,2.34,1.59,2.56-3.87-3.41-.42Zm8.73-4,3.21,4.14h3.51l-3.35-5.39Zm0,3.49,1.8,3.15L833.11,257l-2.54-3.83Zm-3.83,3.19,1.65,2.48-1.65,2-1.88-2.3Zm6.25,65,2.16,3,6.07-.73V320Zm-48.77-35,.3,8.57,4.88,8.53h15.51l7.67-9.8V274.59l-5.53.58-4.48,8.47-15,3.35-3.23-2Zm-11,22.37v-6.54l-25.56-26.52L741.07,271l29.61,40.32Zm29.87,11.66.48,2.22-31.95-5.41,4.8-3.85,8,3,7.2-1.59Zm20.43,0h-4.94l1,3.19h4.72l2-1.61ZM817,324.27l1.45,1.77h3.43l-1.19-2.56ZM835.17,320l-4.94,5.51L834,326l3.35-3Zm-16.44-9.74,3.67-1.13-1.11-6.47,2.16-2.4,1.82,4.8,4.4,1.53v-3.45l-2.48-5.47,4.7-3.95-7.5.32-1.55-2.14,3-3.27,5.51,1.9,2.72-.24,4.07-4.8-3.57-.08L832.23,287l-7.67-1.86-5.08,4.58.36,7.26-3,3.93ZM846.28,300l-.85,3,8.31-.85V300Zm1.92-19.34-2.78,2.74-1.05,6.82,3.83.93-.85-6,2.22-2.78ZM867,298.83l-1.11-5.91-9.1,1.29Zm-.61,4.92L879.1,309l2.28,6.48-4.22,2.58L888,321.87v-21.4l-8.83-4.6L871,302.55l-8.71-3.43-1,4.8Zm-37.8-141.16-8.57-7-3.79,3.5,5.12,11.07,6.19-.43Zm-8.57-7-3.79-3.1,4.9-.64L820.3,142l-12.59,8.67,3.69,7,4.86,1.36Zm-11,113-6.82,9.18L786.5,285l3.23,2,15-3.35,4.48-8.47,5.53-.58v-6.5Zm-52.2,0,2.74,8.88,11.26,9.6.87-3.41-10.63-15.71ZM892,323.27l7.56-6.94,9.8,9.56,8.94,1.82L907.2,316.64l.54-5.85L888,300.48v21.4Zm20.74-11.46,4,2.38,6.88-3.87v-4Zm5.55-11.24,8,5.75,3.21-1.09-8.15-4.86Zm-167.16-85-8.63-14.38,2.22-6.07-5-2.14-6.7,4.82-3.15,21.8,5,4.16,1.9,10,3.51,1.05,2.52-3.15,4.68,5.28,2.6,9.64-.61,10,4-7.89-7.24-26.1,4.9-3.55Zm14.48,12.26,5.79,7.87L766,241.16h12.14v-3.09L766.27,225.5l-2.62-8.09-8.21-4-4.34,2.2V219l4.24,2.48v6.41Zm-10.23,0v-6.41L751.1,219l-4.9,3.55,7.24,26.1-4,7.89-.24,3.93,7,5.95.67,2.18,4.24-.63-6.82-10.05,1.59-15.55,7.67,7.6v-6.37l7.81-7.83-5.79-7.87Zm8.21,15.71v6.37l3.83,3.81,4.3-.59,6.41-4.8v-7.18H766Zm2.72-18.07,11.82,12.57v10.27l-6.41,4.8.16,6.86,12.26-8.09-.42-12L770.9,226.37l.63-7.4,4.56-2.58-9.88-8.45-10.77,5.45,8.21,4Zm-51.11-26.18-2.72,1.27,3.85,12.16,2.48-2.4,11.07,9.28.71-5-5.81-5.43-1-6.5-4.64,1.9Zm4-.83-6.7-1.67.93-4.2-1.92-.67-4.11,6.54-22.55-8.54.06-7.2-5.63-2L678.6,168l-4.92-2.24h-4.54l-6.74,4.79-.18,4.08L666.3,177l1.94,8-8.86,8.16h-5.67v6l4.24,1.61v5.2l-7.66,2,.65.77,6.33,2-3,3,2.8,3.63,5,.59.89-4.16,2,0,16.12,46.37,10.23-6.29L693,235.29l23.34-22.55-3.85-12.16,2.72-1.27,4,5.31,4.64-1.9,1,6.5,5.81,5.43L733,197.83l6.7-4.82-11.28-4.87-7.66,7Zm-34.29-15.74-.06,7.2,22.55,8.54,4.11-6.54Zm28.52,9.87-.93,4.2,6.7,1.67,1.61-3.33ZM585.65,138.73l4.78,4,6.09-1.68,5.39,4.5L601,133.84l8.31-1.92,10.95,7.51,9.16-1.76,6.7,8.84,6.47-.29,6.33-5.2,14.93-.65,9.56,4.43-2.48-11.52,14.89-11.35-8.59-5L627.16,99.25l-19.73,4.45v8.92h-35v11.53l4.68,5.85,10-4,6,4-7.24,3.51ZM624,166.26l-3.35-5.43-13.09-4.15-7.73,2.58-.14,3.44h-9.86l-5.43-9.59-13,1.28v3.83L587.13,185l4.68.45,10.87,11.34,20,6h5.55l4-6.92-4.46-5.59-6.39-18.52Zm-22.05-20.72-5.39-4.5-6.09,1.68,9.72,8-.36,8.5,7.73-2.58,13.11,4.15,3.35,5.43,12.45-6.39-20.53-16.43H607.2Zm51.8,47.56h5.67l8.86-8.16-1.94-8-4.09-2.31.18-4.08,6.74-4.79h4.54l-9.46-4.32-10.07,1.45L651,176.74l-11.64,10.76-12.49-.12,1,2.83,4.46,5.59-4,6.92H645.7l4.6,5.24,7.66-2v-5.2l-4.24-1.61Zm-33.48-53.66-10.95-7.51L601,133.84l.93,11.69,5.3-2.08h8.71l20.53,16.43,6.72,1.8-3.05-9,9.54-2.74.54-4.06-14.08.62-6.7-8.84ZM624,166.26l-2.54,5.43,5.39,15.69,12.49.12L651,176.75l3.19-13.84-2.06-5.83-8.92,4.59-6.72-1.8Zm27.27-11.87-8-2.6-3.11.9,3.05,9,8.92-4.59,2.06,5.83,10.07-1.45-1.49-.68-2.94-7.2ZM648.89,141l-6.33,5.2,7.62-.34-.54,4.06-6.43,1.84,8,2.6,8.57-.81-1.33-3.23,14.91-5.54-9.56-4.43Zm-76.45,7.48,5.71,5.21,6.21-.61L580,145.49l-4.68-1.16Zm-12.28-2.16,8.47,2.16h3.81l2.92-4.18-10.81-4.9-4.38.95Zm11.2,8,6.78-.67-5.71-5.21h-3.81ZM506.82,89.44l-2.24.53.58.43-.63,2.88-6.29-2.88,0,3.73,8.57,2.19L513,99.14l2.38-2L514.51,91l-3.13,1Zm-8.55,9L503,100l1.31,2.71,1,2.89,7.6-6.44-6.17-2.82-8.57-2.19Zm24.27-1.29h-7.18l-10,8.48L507,110l14.3,2.28,8.92-1.95-5.31-2.16,3.19-2ZM502.63,86l-.75,1.92,2.7,2,2.24-.53L511.38,92l3.13-1-1-6.9-1.78,1.68Zm18.64,26.22L507,110l.89,2.48-5.12,6.38v3.61h19.34L524,126l-3.35,5.25,2.94,1.23.79-2.44h11.46l-2.54,2.63,3.53,2,4.76-.37L537,128.5l11.9-2.53,3-6.81-21.76-8.86ZM494,56.4,474,71.09V84.15l-2.76,4.32,7.54,8.68,12.3-10.89-5.75-7.14,13-14.15h2.56l-3.53-8.57ZM458.72,89.46l11.72-1.92.81.93L474,84.16V71.09l20-14.69h11.09V52.74l-11.36.58-39,27ZM505.15,56.4h-7.81L500.85,65h2.06l-6.23,14.11L504,82.75H515l6.23-7.19L510.94,52.44l-5.79.29ZM841.1,120.65h3.83l-13.51-13.84-3.83-.11,10.85,13.42,5.31,9.9h3.95ZM503,100l-4.78-1.59,0,3.18,6.07,1.12ZM788.74,52.15l-3.67-5-22.69-3.71L756,49.21H737.64L730,43.46H688.45l-2.56-9.15H647.56L613.77,49.42l7.4,9.16-6.39,6.6L609,46.32l-10.19-.81,4.9,11.15-39.41,1.06L527.48,72.84l-4.86-9.26,14,.53,6.82-3.41-26.83-8.56-5.71.29,10.33,23.12L515,82.75l-1.51,1.41,1,6.9.85,6.06h7.18l5.53,9-3.19,2,5.31,2.16,21.76,8.86-3,6.81,1.43,3.41-3.51,1,.61,5.6,12.71,4.45,4.38-.95,10.81,4.9,4.68,1.16-2.92-5.11V130l-4.68-5.85V112.65h35v-8.92l19.73-4.45,50.06,17.65,8.59,5,10.57-8.05,14.16,4.31,3.83-8.62,34.82,8.62h17l6.39-1.28-3.41-12h14.91l15.33,15,20.86,5.32v16.82l9.14-1.61,4.92-7.34V119.49l-14.06-16-13.62-.21L809,86.48l28.1.21,3.05-9.55L852,81.64l0-4.4,2.94.3,5.12,4.9-4.94,3.36-.59,10.05,20,19V96.49L863.27,85.63,890,77.16l.34-2.73L876.9,70.78l5.24-4.08,12,2.48,8.15.16-6.54-7-42-8.31ZM489.09,123.43l-4.94,4,7.18,2.67,7.66-1.32,6.07-6.38h-2.4v-1.51ZM485.42,120l3.67,3.47,13.56-2.5v-2.1l-12.3-1.49-.52-.2Zm-25.9,9.87,4.4.32,4-.92-1.43-4.31h-3.75L460.29,126ZM476.37,120h9l4.42-2.82-8.65-3.41-7.73,2.4Zm-60.76,41.57,1.78.13,2.06-17.32-6.7-1.12-.34,12.67Zm104.89-30.3,3.35-5.25L522,122.43h-5.73ZM504.26,102.7l-6.07-1.12-6.39.21-1.45-1.33-9.16,2.24h-.81l.81,11,8.67,3.41.5.2,12.3,1.49,5.12-6.38-.89-2.48-1.59-4.37Zm.79,19.73L499,128.82l5.43,9L518,136.29l3.87,1.06,1.59-4.91-2.94-1.23-4.24-8.79Zm-24.69-19.74-11.76-.13-.54-2.09h-4.13l.83,2-6.19,3.71L458,116.87l3.75,2-1.49,7.2,2.44-1.12h8.73l.75-.22,6.33-1.86L476.37,120l-2.92-3.83,7.73-2.4Zm-16.42-2.23h4.13l-.22-.88L469.2,92,465.49,92l-2.64,5.95Zm11-2.65-2.32-2.3-2.06.85-.63,3.26,3.85,0Zm3.59,25-7.08,2.08h-5l1.43,4.31,7.56-1.75h8.69l3.63-3,1.31-1.06-3.67-3.47h-9Zm4.32,34.49h-7.67v1.92l2.88,2,4.8.74ZM462.73,146.5v7.88h3.67v-6.81Zm-3.21-16.69-.69,3.39,4.44,2h5.16l15.87,15.83.81,6.74,2.92-1.7.91-4.84,3.61-.72-19.36-16.75,5.49-.33-3.21-6-11.54,2.67Zm5.06,11.27v3.25l1.82.69.81-3.94ZM428,121.16v2.34l6.58,3.56.87,11.67,9.76,6.24,3-3.9,14.28.1.42-6h.38l-4.44-2,3-14.38-13-6.78-15.23,9.13Zm24.45-11.3L448.79,112l7.28,3.8,2.08-1.12.08-1.76Zm5.81,3.08.36-6.78-6.17,3.69Zm-2.16,2.88,2,1,.1-2.15Zm-23.84-16.6.08,4.9L429,106l3,4.3-6,5.68,7.91-1.44,8.05-1.28.52-3H444l.36-3.3-5.22-1.1-6.52-15-5-.15v8.07Zm-6.31,3.54v-3.2l-5.83-.39,3.35,4.47Zm-11.74.74v8.73l3.35,0v-3l6.39.88-.48-6.47-3.35-4.47Zm3.21,58.15,14,1L445.18,145l-9.76-6.24-22.57.16-.1,4.31,6.7,1.12Zm31-7.46v-3.75L444,154.2Zm51.09-4.36,8.86-2.87-2-4.76-7.3,1.43Zm-5.61-20.15,1.63,9,3.51,4.9,7.3-1.43-1.86-4.37-5.43-9Zm-15.17,3.75.81,0,4.16-2.18,1.88-3.23-1.39-.52h-8.69ZM522.94,151l-6.6-.05,5.43,10.92,25,1.38,24.53-5v-3.83l-2.74-5.88-8.47-2.16-34.19,1.12Zm-6.62-2.48h6.09l-2.46-5.3-3.69,1.19ZM489,141.42l2.2.55,4.22-3.23-1.19-6.65-9,1.22Zm7.12,9.47,2.82,3.25,5.43,1.52-3.31,1.4,4.38,5.51,2.76-4.36-3.07-6.71,6.11-3h5l-.06-4.1Zm-4.84-20.76L485.54,128l-1.88,3.23-4.16,2.18,1.45-.09,6.72,7.77,1.39.35-3.79-8.12,9-1.22-.44-2.39Zm2.56,12.49,3.17-1.69-1.59-2.2L491.25,142l4.42,8.35.5.58,3.29-1.06-.48-6.2-1.92-2.7ZM508.32,147l11.62-3.76,1.9-5.86L518,136.29l-13.56,1.54ZM595,202.78l2.7,1.78,1.77-1.82-3.09-4.36ZM541.24,166l-7.12,2.64,5.1,1.28Zm4.58,9.11v12.8l2.68.32,4-1.86,1.23-7.19,3.11-1.32.16-.07-.91-3.82-6.41,3.82Zm48.35,27.07-7-11.5h-3.07l-2.2-2.85-6,0-19-9.94-3.13,1.32-1.21,7.19-4,1.86-2.66-.32,24.81,43.11.5,1.61,2.58-4.42,8.81,1.11-.81,3.35,12.47-6.54,17.55-4.7v-9.14L602.58,211l-2.78-5.1Zm-15.09-14.37h2.8l2.18,2.85h3.07l-3.73-6.07H579.9ZM561.27,170.9l-5.2,3.1,1,4,18.82,9.84h3.23l.81-3.2,6.92,0-15.55-26.36-7.14,1.46Zm45.2,36.33-6.66-1.31,2.78,5.1,5.16.73,7.34-7.46-3.35-3Zm1.27,4.52,4,.56v9.14l-8.83,2.36v5.31l4.92,3.33,16.26-20.15-9-8Zm-59-42-2.9,5.36,3.85,2.68,11.6-6.92,2.86-11.21-17.39,3.55-1.17,5.45Zm45.45,56.38L581.7,232.7l.81-3.35-8.81-1.11-2.58,4.42,4.4,14.36,32.29-14.56-4.92-3.33v-5.31Zm-48.35-51,2.9-5.36-3.15-1.09-1.15,5.45Zm-.08,13,.08-.19v-12.8l-1.41-1-2.22,8.2Zm26.53,182.73,3.37,8,8.07.36,13.74-44.09h-4.9l-16,16.58L575,363.17ZM483.55,262.56l-2.34-6.92h4.68l-5.77-12.26v6.78l-8.29,17.17-7.24.42-1,7.06h3.13l-.16,7.22h20l.89-2.56h0l-6-8.41Zm-11.5,24.73h-5.61l-.18,8.59,7.2,9.62v-8.23h9.24L478,282h-11.4l-.14,5.26Zm-18.74-18.13,1.27,5.65h9l1-7.06,7.24-.42,8.29-17.17v-6.78h-31l-5,24.43Zm-45.79-4.68L409.8,267v10.65l16.9-4.88V257.19l-16.5-3.25v8.21Zm2.28,13.21V267l-6.11-6.88-5.41,5.1Zm101.72,49.7-5.83-2.88V313.89H499.1l-1.33,4.68-6.56.22-1.71-5.89-10.43.08v23.26l-5.95,9.8.52,6.39h36.79l-6-7.46v-8.31h7.34ZM438.16,269.5l-2.74-16.74H426.7v20ZM478,282l4.72,15.23h-9.24v8.23l3.63,4.84,8.81-4,9.26-15.37,1.47-11.46h-9.2l-.89,2.56Zm86.07-42.22,5.45,8.63,2.08-1.75L557.76,223l-7.14,16.86ZM398.3,265.26l5.39-5.1-5.53-6.23-5.37,5.39ZM571,254.07l3.47-2.5-2.84-4.88-4.14,3.47Zm-25.66,77.46v5.12l4.48,3V346l-4.26,3.73v-7.48l-4.26-3.49-.12.08-8.05,5.61,8.05,5.28v7.38l-5,11.78v13l3.65-.06.24-1.77,7.56-5.28L547,359l17.73-14.54-1.77-16.58Zm29.13-80-3.47,2.5,3.53,4,14.06,5-22,18.28v15.91l34.41-40-1.41-7-23.92,3.55ZM486.75,389.37H500V355.59h17.53l-2.28-3.17H473.64Zm65.41-115.6-6,.85,1.73,7.42-.85,6.29-2.7,4.76L560.8,304l5.79-6.76V281.3L573,276H554.25Zm-7.85,19.32-1,1.8h-5.93l1.53-2.62h-2.7l-6.07,15,11,15.53h4.16v8.71l17.65-3.67L560.8,304Zm-135.07-94.2h-9.8v11.24l-3.61,5.47h-12.1l-.44,12.63,14.87,10.69V235.1H416l-1.71-30.5h9.42l-14.54-10.73Zm124.48,99.5,2.46-6.11h-5.24l-1.67,7Zm-3.61,8.92,3.61-8.92-4.44.93-1.21,5.1Zm-143-54.16,5.73,6.19,5.37-5.39,5.53,6.23,3.83,4.32,2.68-2.34v-8.21l-1.29-5.85h-17Zm29-18H398.16v3.83l4,9.16h6.7l1.29,5.85,8.25,1.63v-8.27l31.67-12.83V224l-26.36-19.42h-9.42Zm110.09,94.54,6.39,2.56-2.22,4.46-18.78-9.26.24,9.26h-7.34V345l6,7.46h11.24l19.45-13.55v-16l-2.44-3.43L528.06,321ZM500,377.33l5.31,6.13L527,368.92l-9.48-13.33H500ZM418.45,255.56l8.25,1.63v-4.42h8.73L445.56,249l-9.68-8.81-17.43,7.06Zm122.68,67.27v16l.12-.08,4.26,3.49v7.48l4.26-3.73v-6.39l-4.48-3V322.83Zm28.38-74.39-5.45-8.63H550.62l-9.5,22.43L554.25,276H573l15.57-13-14.06-5-7-7.87Zm-38.57,43.83h7.93l2.26-3.95H547l.85-6.29-1.73-7.42-11.36,1.59ZM450.12,224v10.45l-14.24,5.77,9.7,8.81,2.54-.93,1-4.72h31l7-14.36-2.76-18.9h-13.8Zm-66.38-8.41h12.08l3.63-5.47V198.88h9.8v-6.82H398.46L383.9,211Zm-.89,24.93,9.78,2.86h-9.88l-.18,4.7H402.2l-4-9.16-14.87-10.69Zm9.78,2.86-9.78-2.86-.1,2.86ZM487.1,229l-7,14.36,5.77,12.26h-4.68l2.34,6.92,23.16-10.95V239.7l5.16-5.08.52-11.58-20.11-12.91h-7.91Zm.06-47-4.22-5.12-9.06-2.18-8.43,9.07,5.47,26.3h21.36L512.39,223l2-44.5L502.65,177l-4.84,7.24Zm-79.62,10h1.71v-1.45l24.27-13.25v-9.51l-17.89,1.86-17.17,22.35Zm26-24.19v9.51l-24.27,13.25v3.25L450.12,224l20.45-13.88h.36l-10-47.93-11.74-.34Zm27.43-5.67,4.5,21.66,8.43-9.07-3.31-.79.42-11.5ZM515.2,352.42,527,368.92h9.12l5-11.78v-7.38l-8.05-5.28-11.4,7.93Zm5.39,44.94h4.68l2.78-2.9v-3.71h-3.83l-3.63,2.34Zm15.49-16.6h-3.57V384l3.57,2.14Zm9.6-192.49.06-.17-3.55-5.78-27.84-3.78-1.49,33.75h30.52l6.15-3.51L536.88,187l6.92,5.64Zm3.85,20.53-6.15,3.51H512.85l-1,22.31-5.16,5.08v11.92l18.27,21,9.78,3.57,17.37-2.44-11-11.52,9.5-22.43L557.76,223Zm-21.48,95.61,6.7-28.2L525,272.64l-27.59.77-2.24,17.53-9.26,15.37-8.81,4,2,2.64,10.43-.08,1.71,5.89,6.56-.22,1.33-4.68h6.58v10.63l24.61,12.14,2.22-4.46-6.39-2.56,1.92-8.63,10.63-1.61Zm-46.64-33.34,6,8.41h9.24l.77-6.07,27.59-.77-18.27-21-23.16,10.95Zm-33.3-23-8.65,3.17,2.84,17,1.75-.5Zm-8.65,3.17-4,1.49,2.74,16.74,4.14-1.19Zm-52.42,1.86,4.82-5.06h-9.28l0,.22ZM116.75,54.23l-7.24-3-37.9.21L56.28,57.64v6.81L39,64.24,35.76,68.8l14.55-.52-18.74,7L22.53,87.58l7.78-.13L15.39,97.24l5.45.43L49.38,84l32.94-1.15,10,10,3.78-4.07-3.3-3.41H89.08l-3.64-4.17,31.31-27ZM92,117.61l-5.22-4.26-2.24,1.92L88.16,120H92Zm199.9,6.59L288,118l-3.53-.84v-4.46L273.08,124.2Zm-5.95-72L263,42.83l-3.41,0-8,6.53,2.66-6.57-3.85,0-9.26,9.85,22.51-1.22,13.74,12.3-9.24-.16-4.66,3.82H253.09v3h10.65l9,7.46,2.46-1.07L273.08,72l6.21,3,2-.88V64.76l7.14,2.54,4.11-2.74-2.32-4.33-4.13-1.5Zm-77.07,83.55h6.6l4.58-3.14h14.79l6.39-5.54H247l-2.08,6.55,10.21-1.76-6.7,3.19.63,2.77,18.21-6.4-8.88-.42-4.14-3.73,4.11-6.37-2-1.91-12.87,5.84v-3.35l12.32-5.91,19.73-.85,14.83-7.9.08-3.6-10.81-1.87L278.3,83.66l-14.14,5.56.1-8.31-6.82-5.8h-9.26l-25,36.45-6.07,0,.12-12L195.6,87.88l21.58-16,12.24-2.23-2.56-3.78,18.84-2.08,7.67-8-7.2-.8-9.9,6.55L237.38,56l-4.62-.48-1.09-6.75-8,3.56,2.08,4.31L215,61.74l-18.68-3.51-9.88,4.63-24-9.58-45.83,1-31.31,27L89,85.44h3.72L96,88.85l-3.78,4.07L88.4,110.46l6.87,6.23V120h77l9,4.13,15.31-3.25,1.92,6.79,3.09,2.28,5.2-.37Zm27.63-68.42-5.87,4.77,11.6,1.23,1.23-3ZM213.84,55.16,216,58l5.47-2.79-1.63-2.59ZM218,45.79l3.49,3.54,7.5-2.5,2-5.24Zm14.3-2.11,1,3.35,10.21-2.71-2.06-2.74Zm26-6.95-5.59-2.32-5.43,4.63,22,1.74,5.75-4ZM312,24.36l11.5-6.49L277.8,21.26v2.47l15.41-.32L291,26.28l-16,.32,2.08,3.67-6.88-1.12L273,32.67H261.18l1.77,1.76h12.93L278,36.18,296.8,27.4ZM256.08,27l8.51,1.61,4.88-3.12-3.53-2.64ZM166.23,49.34l20-6.8-4.6-2.13-18.9,4.81Zm22.57-5.56L178,47.44l6.35,2.67-9.9,2.52,12.3,4.79,8.47-3.67L204.66,56l7.06-1.62-6.9-3.19,5.31-6.86h-5.31l-3.19,4.13-1.29-4.13-5.63,2.19ZM173.19,212H183l7.91,5.28-3,3.35h13.72l-16.4-11.82h-8.68Zm13.74,14.7,2.06,1.77h5.91v-2.08l-2.06-2.08h-5.91Zm36.39-1.63-1.21,2h3.31l1.21-2Zm-73,8.57h-5.59l-2.65,4.72,7.91,4,5.36-9.68-1-5.16h-4.79Zm6.23,7.83-1,3.39,1.44.65,13.22-11.07-15.93.16-2.63,4.7Zm-1,3.39,1-3.39-4.86-2.16-1.7,3Zm5-22-6.23,4.64,1,5.16Zm1.52,29.43,8.62.91-.43-18.76-13.22,11.07ZM176,304.55l7.05,3.37,12.57-15.43-12.81-7.32-6.08,7.66Zm25.9-54.62-3.41,0-7.12,9.62-3.63.24,1,3.49-1.9,2.7,1.47,4.88-1.39,9.1-4.14,5.24,29.27,16.72V283.13l6.8-.46V267.78l-11.17-1.15-4.86-5.37ZM248.37,477.6l4.36,4,13.45.5-14.52-7.58ZM269,380.92l-5.87,3.57h-7.89v-7l-16.12-10.91-.91,1.67H224.79l-3.61,33.52,7.6,33.22,6.86,12.22.32,9.16,10.19,15.61,3.71.38-1.92-39.92L269.55,423l-9.8-13.64v-15l9.54-9.8Zm2.38,32.76,4.68-8.11-16.34-11.19v15ZM225.9,255.24l-7.24-5.16-16.78-.16,1,11.32,4.86,5.37,11.17,1.15v14.89l1.78-.12,2.26,5.06,7.26-2.34-.59-7.85,9.72-3.57,2.88-14.2-3.27-3.13Zm-63.82-2.94,5.74,7.75,2.07.73,2.91-3.77-2-1.13-.06-2.68Zm90.19,17-10.13-9.64-2.88,14.2,4.22-1.55-.58,12.12,9.7-1.09-3.31-8.49ZM227.2,327.77l-9.9,2.8v22.63l7.46,15h13.45l5.24-9.6,10.13-.06-.24-7.58-17.25-14.1Zm34.11-45.39,6.5-.73,1.92-5.45-2.56-5.61-5.43-.46Zm-7.73,76.19-10.13.06-4.32,7.93,16.12,10.91v7h7.89l5.87-3.57-.4-5.55-14.75-7.87Zm-1-75.24,8.71-1,.44-12.26-9.48-.83-3,5.55Zm40.75,12.16L286,292.29l-7.38,4.32,2.4-6.47-4.9-2.12-7,5.35,5.06-7.46-4.46-9.74-1.92,5.45-24.91,2.78.58-12.12-4.22,1.55-9.72,3.57.59,7.85-7.26,2.34-2.26-5.06-8.59.58v22.15l-8.73,1.07-3.85,12.55,14.6,12.57,13.15-3.71,8.88,9.12L253.34,351l.52,16.5,14.75,7.87.65,9.22-9.54,9.8,16.34,11.19,9.52-16.6,2.24-14.38L311,364.36l4.3-32,10-13v-7.89l-16.32-10.63-16-1ZM179.09,256.75,176.38,259l-3.59-2-2.91,3.77,8.55,3.05,2.07-3.09,4.9.48,1.43,4.72,1.9-2.7-.89-3.27-1.07-3.91Zm24.21,49.6,8.73-1.07v-3.39l-16.46-9.4L183,307.92l-7.05-3.37-.23,3.61,21.42,36.47L215.64,357l1.67-3.83V330.57l-3.25.91-14.6-12.57ZM228.75,435l-7.6-33.22,3.61-33.52-7.46-15L215.64,357l3.11,75.86,8.19,6.62.38,13.6,14.2,18.36,4.6.48-10.19-15.61-.32-9.16Zm-9.92-212.6-9.66-1.07v5.33l3.23-2.4h5.16Zm-9.66,3v-4h-6l2,2.78H201.6v1.25ZM935.6,430.63l-2,6.35,14.48-10.31-4.16-5.55v-6.35l-2.38,1v8.92Zm-38.08,20.82,30.14-15.27v4l-23.2,15.27ZM774,373.11l25.38-11.9,18.84-20.82L828.51,345l4.56-9.52,17.25-.4L846,343l14.28,12.3,9.52-9.52V332.46l4.36,1.39,5,23.8,15.47,21.81L893,395.92,864.8,425.07l-24.39-1.39-3-16.46-8.33,3.57-7.93-6.94L773,414.36l-3-3.57,4-9.52Z" style="fill:#fafafa;stroke:#999;stroke-linecap:round;stroke-linejoin:round;stroke-width:0.25px"/></svg>