<svg id="svg2" xmlns="http://www.w3.org/2000/svg" viewBox="0 0 40 40"><title>plane</title><path id="path6" d="M37.9,21.15q-1.37,1.37-6.08,1.37H24.24l-9.52,14-.08.11a.7.7,0,0,1-.51.22h-2a.7.7,0,0,1-.51-.22.65.65,0,0,1-.17-.74l4.75-13.4H8.46q-2.68,4.83-2.9,5.05a.7.7,0,0,1-.51.22H3a.74.74,0,0,1-.69-.92l2-6.87-2-6.87a.66.66,0,0,1,.17-.71A.7.7,0,0,1,3,12.22l2,0a.7.7,0,0,1,.51.22q.22.22,2.9,5.05H16.2L11.44,4.07a.65.65,0,0,1,.17-.74.7.7,0,0,1,.51-.22h2a.7.7,0,0,1,.51.22.31.31,0,0,1,.08.11l9.52,14h7.58q4.7,0,6.08,1.37a1.57,1.57,0,0,1,0,2.3Z"/></svg>